<?xml version="1.0" standalone="no"?>
<!DOCTYPE svg PUBLIC "-//W3C//DTD SVG 20010904//EN"
 "http://www.w3.org/TR/2001/REC-SVG-20010904/DTD/svg10.dtd">
<svg version="1.0" xmlns="http://www.w3.org/2000/svg"
 width="700.000000pt" height="700.000000pt" viewBox="0 0 700.000000 700.000000"
 preserveAspectRatio="xMidYMid meet">
<metadata>
Created by potrace 1.14, written by Peter Selinger 2001-2017
</metadata>
<g transform="translate(0.000000,700.000000) scale(0.100000,-0.100000)"
fill="#000000" stroke="none">
<path d="M2853 6000 c-61 -25 -68 -115 -12 -149 28 -17 69 -18 670 -17 l641 1
24 28 c33 39 31 81 -5 118 l-29 29 -634 -1 c-348 0 -643 -4 -655 -9z"/>
<path d="M1783 5704 c-96 -25 -173 -72 -250 -153 -45 -47 -107 -154 -96 -165
3 -3 2 -6 -4 -6 -31 0 -32 -96 -33 -1761 0 -1644 0 -1678 20 -1740 27 -87 85
-172 168 -246 83 -74 141 -114 202 -137 47 -19 49 -19 120 -31 76 -13 3196 -9
3265 4 143 26 294 137 362 267 66 125 63 18 60 1844 l-2 1655 -22 65 c-28 81
-70 147 -141 216 -29 30 -51 54 -47 54 14 0 -89 77 -130 98 -103 52 -30 50
-1787 50 -1338 0 -1642 -3 -1685 -14z m140 -51 c-7 -2 -19 -2 -25 0 -7 3 -2 5
12 5 14 0 19 -2 13 -5z m3240 0 c-7 -2 -19 -2 -25 0 -7 3 -2 5 12 5 14 0 19
-2 13 -5z m-3343 -22 c-152 -48 -274 -168 -330 -323 -11 -29 -19 -46 -20 -37
-1 42 50 156 90 202 83 96 212 173 295 175 11 1 -5 -7 -35 -17z m3495 -29 c-3
-3 -11 0 -18 7 -9 10 -8 11 6 5 10 -3 15 -9 12 -12z m-125 -17 c30 -8 74 -24
97 -36 46 -24 113 -76 111 -87 -1 -4 13 -36 30 -72 17 -36 36 -97 42 -138 12
-74 20 -1172 10 -1172 -4 0 -16 34 -28 75 -78 266 -257 565 -467 784 -327 339
-754 544 -1240 596 -65 7 -325 8 -365 1 -14 -2 -52 -7 -85 -11 -256 -28 -592
-152 -820 -302 -578 -382 -912 -1012 -900 -1698 3 -156 9 -214 40 -365 150
-745 720 -1342 1455 -1525 96 -24 131 -31 230 -45 l55 -7 -60 -2 c-33 -1 -362
-2 -732 -2 -749 0 -760 1 -870 67 l-58 35 30 -32 c17 -18 22 -27 12 -19 -66
50 -143 193 -154 286 -8 65 -8 3238 0 3289 27 178 165 330 347 381 35 9 402
12 1655 13 1381 1 1618 -1 1665 -14z m180 -11 c0 -2 -9 0 -20 6 -11 6 -20 13
-20 16 0 2 9 0 20 -6 11 -6 20 -13 20 -16z m68 -144 c17 -27 10 -25 -19 6 -13
14 -17 23 -9 19 9 -3 21 -14 28 -25z m72 -124 c0 -12 -5 -7 -19 24 -11 24 -11
24 3 6 9 -11 16 -24 16 -30z m-4043 -88 c-3 -7 -5 -2 -5 12 0 14 2 19 5 13 2
-7 2 -19 0 -25z m4070 -45 c-3 -10 -5 -4 -5 12 0 17 2 24 5 18 2 -7 2 -21 0
-30z m-1779 6 c314 -45 542 -137 787 -320 231 -172 420 -419 530 -694 34 -86
79 -240 90 -315 3 -19 10 -60 15 -90 9 -58 6 -384 -4 -435 -3 -16 -13 -66 -22
-110 -91 -473 -437 -912 -888 -1129 -306 -146 -658 -195 -988 -136 -114 21
-155 31 -257 66 -328 112 -635 351 -828 644 -340 519 -355 1210 -38 1736 256
423 679 705 1165 777 108 16 344 19 438 6z m-2301 -2427 c-1 -444 -2 -80 -2
808 0 888 1 1252 2 807 2 -444 2 -1170 0 -1615z m4025 -209 c0 -274 -3 -516
-6 -538 -9 -57 -48 -185 -57 -185 -3 0 -12 -13 -19 -30 -7 -16 -16 -30 -21
-30 -5 0 -9 -4 -9 -10 0 -10 -37 -48 -66 -67 -74 -49 -115 -69 -173 -85 -61
-17 -114 -18 -715 -19 -581 0 -733 2 -618 9 20 2 44 5 52 7 8 2 35 7 60 10 71
10 267 64 360 99 388 150 721 419 953 771 100 152 247 483 247 558 0 11 3 18
6 14 3 -3 6 -230 6 -504z m55 -625 c-3 -7 -5 -2 -5 12 0 14 2 19 5 13 2 -7 2
-19 0 -25z m-4070 -40 c-3 -7 -5 -2 -5 12 0 14 2 19 5 13 2 -7 2 -19 0 -25z
m4043 -61 c-43 -115 -152 -224 -266 -267 -31 -11 -61 -19 -67 -17 -5 1 16 11
47 22 31 11 56 22 56 26 0 4 9 11 21 14 12 4 29 15 39 25 10 10 24 22 32 26
45 29 126 157 144 229 5 18 9 23 11 14 2 -9 -6 -41 -17 -72z m-4033 21 c-3 -8
-6 -5 -6 6 -1 11 2 17 5 13 3 -3 4 -12 1 -19z m37 -85 c9 -18 14 -33 12 -33
-6 0 -36 55 -36 66 0 11 5 3 24 -33z m41 -69 c9 -15 12 -23 6 -20 -11 7 -35
46 -28 46 3 0 12 -12 22 -26z m214 -111 c2 -2 0 -3 -5 -3 -5 0 -22 12 -39 26
l-30 26 35 -23 c19 -12 37 -24 39 -26z m158 -49 c-3 -3 -12 -4 -19 -1 -8 3 -5
6 6 6 11 1 17 -2 13 -5z m3230 0 c-3 -3 -12 -4 -19 -1 -8 3 -5 6 6 6 11 1 17
-2 13 -5z"/>
<path d="M4005 4186 c-44 -12 -102 -33 -130 -46 -64 -32 -183 -149 -222 -220
-32 -57 -71 -163 -78 -215 -2 -16 -7 -48 -10 -70 -11 -69 -5 -236 10 -305 3
-14 7 -34 9 -45 9 -46 48 -142 78 -193 41 -67 133 -154 201 -189 141 -72 412
-82 595 -22 l62 21 0 87 c0 48 -3 90 -6 93 -3 4 -20 0 -38 -7 -54 -23 -207
-47 -288 -47 -191 2 -308 83 -367 254 -54 156 -43 395 25 531 30 63 57 94 117
140 64 49 130 68 230 69 71 0 101 -6 192 -37 59 -20 108 -35 110 -33 2 2 19
41 38 88 l35 85 -56 24 c-144 60 -360 76 -507 37z"/>
<path d="M2422 4098 l3 -93 180 -1 c99 -1 186 -2 193 -3 9 -1 12 -122 12 -571
l0 -570 38 -1 c41 -1 150 -1 170 0 9 1 12 123 12 574 l0 573 195 -1 195 0 0
92 0 93 -500 0 -501 0 3 -92z"/>
</g>
</svg>
