<svg version="1.0" xmlns="http://www.w3.org/2000/svg" width="933.333" height="933.333" viewBox="0 0 700 700"><path d="M285.3 100c-6.1 2.5-6.8 11.5-1.2 14.9 2.8 1.7 6.9 1.8 67 1.7l64.1-.1 2.4-2.8c3.3-3.9 3.1-8.1-.5-11.8l-2.9-2.9-63.4.1c-34.8 0-64.3.4-65.5.9zM178.3 129.6c-9.6 2.5-17.3 7.2-25 15.3-4.5 4.7-10.7 15.4-9.6 16.5.3.3.2.6-.4.6-3.1 0-3.2 9.6-3.3 176.1 0 164.4 0 167.8 2 174 2.7 8.7 8.5 17.2 16.8 24.6 8.3 7.4 14.1 11.4 20.2 13.7 4.7 1.9 4.9 1.9 12 3.1 7.6 1.3 319.6.9 326.5-.4 14.3-2.6 29.4-13.7 36.2-26.7 6.6-12.5 6.3-1.8 6-184.4l-.2-165.5-2.2-6.5c-2.8-8.1-7-14.7-14.1-21.6-2.9-3-5.1-5.4-4.7-5.4 1.4 0-8.9-7.7-13-9.8-10.3-5.2-3-5-178.7-5-133.8 0-164.2.3-168.5 1.4zm14 5.1c-.7.2-1.9.2-2.5 0-.7-.3-.2-.5 1.2-.5s1.9.2 1.3.5zm324 0c-.7.2-1.9.2-2.5 0-.7-.3-.2-.5 1.2-.5s1.9.2 1.3.5zM182 136.9c-15.2 4.8-27.4 16.8-33 32.3-1.1 2.9-1.9 4.6-2 3.7-.1-4.2 5-15.6 9-20.2 8.3-9.6 21.2-17.3 29.5-17.5 1.1-.1-.5.7-3.5 1.7zm349.5 2.9c-.3.3-1.1 0-1.8-.7-.9-1-.8-1.1.6-.5 1 .3 1.5.9 1.2 1.2zm-12.5 1.7c3 .8 7.4 2.4 9.7 3.6 4.6 2.4 11.3 7.6 11.1 8.7-.1.4 1.3 3.6 3 7.2s3.6 9.7 4.2 13.8c1.2 7.4 2 117.2 1 117.2-.4 0-1.6-3.4-2.8-7.5-7.8-26.6-25.7-56.5-46.7-78.4-32.7-33.9-75.4-54.4-124-59.6-6.5-.7-32.5-.8-36.5-.1-1.4.2-5.2.7-8.5 1.1-25.6 2.8-59.2 15.2-82 30.2-57.8 38.2-91.2 101.2-90 169.8.3 15.6.9 21.4 4 36.5 15 74.5 72 134.2 145.5 152.5 9.6 2.4 13.1 3.1 23 4.5l5.5.7-6 .2c-3.3.1-36.2.2-73.2.2-74.9 0-76-.1-87-6.7l-5.8-3.5 3 3.2c1.7 1.8 2.2 2.7 1.2 1.9-6.6-5-14.3-19.3-15.4-28.6-.8-6.5-.8-323.8 0-328.9 2.7-17.8 16.5-33 34.7-38.1 3.5-.9 40.2-1.2 165.5-1.3 138.1-.1 161.8.1 166.5 1.4zm18 1.1c0 .2-.9 0-2-.6s-2-1.3-2-1.6c0-.2.9 0 2 .6s2 1.3 2 1.6zm6.8 14.4c1.7 2.7 1 2.5-1.9-.6-1.3-1.4-1.7-2.3-.9-1.9.9.3 2.1 1.4 2.8 2.5zm7.2 12.4c0 1.2-.5.7-1.9-2.4-1.1-2.4-1.1-2.4.3-.6.9 1.1 1.6 2.4 1.6 3zm-404.3 8.8c-.3.7-.5.2-.5-1.2s.2-1.9.5-1.3c.2.7.2 1.9 0 2.5zm407 4.5c-.3 1-.5.4-.5-1.2 0-1.7.2-2.4.5-1.8.2.7.2 2.1 0 3zm-177.9-.6c31.4 4.5 54.2 13.7 78.7 32 23.1 17.2 42 41.9 53 69.4 3.4 8.6 7.9 24 9 31.5.3 1.9 1 6 1.5 9 .9 5.8.6 38.4-.4 43.5-.3 1.6-1.3 6.6-2.2 11-9.1 47.3-43.7 91.2-88.8 112.9-30.6 14.6-65.8 19.5-98.8 13.6-11.4-2.1-15.5-3.1-25.7-6.6-32.8-11.2-63.5-35.1-82.8-64.4-34-51.9-35.5-121-3.8-173.6 25.6-42.3 67.9-70.5 116.5-77.7 10.8-1.6 34.4-1.9 43.8-.6zM145.7 424.8c-.1 44.4-.2 8-.2-80.8s.1-125.2.2-80.7c.2 44.4.2 117 0 161.5zm402.5 20.9c0 27.4-.3 51.6-.6 53.8-.9 5.7-4.8 18.5-5.7 18.5-.3 0-1.2 1.3-1.9 3-.7 1.6-1.6 3-2.1 3s-.9.4-.9 1c0 1-3.7 4.8-6.6 6.7-7.4 4.9-11.5 6.9-17.3 8.5-6.1 1.7-11.4 1.8-71.5 1.9-58.1 0-73.3-.2-61.8-.9 2-.2 4.4-.5 5.2-.7.8-.2 3.5-.7 6-1 7.1-1 26.7-6.4 36-9.9 38.8-15 72.1-41.9 95.3-77.1 10-15.2 24.7-48.3 24.7-55.8 0-1.1.3-1.8.6-1.4.3.3.6 23 .6 50.4zm5.5 62.5c-.3.7-.5.2-.5-1.2s.2-1.9.5-1.3c.2.7.2 1.9 0 2.5zm-407 4c-.3.7-.5.2-.5-1.2s.2-1.9.5-1.3c.2.7.2 1.9 0 2.5zm404.3 6.1c-4.3 11.5-15.2 22.4-26.6 26.7-3.1 1.1-6.1 1.9-6.7 1.7-.5-.1 1.6-1.1 4.7-2.2s5.6-2.2 5.6-2.6c0-.4.9-1.1 2.1-1.4 1.2-.4 2.9-1.5 3.9-2.5s2.4-2.2 3.2-2.6c4.5-2.9 12.6-15.7 14.4-22.9.5-1.8.9-2.3 1.1-1.4.2.9-.6 4.1-1.7 7.2zm-403.3-2.1c-.3.8-.6.5-.6-.6-.1-1.1.2-1.7.5-1.3.3.3.4 1.2.1 1.9zm3.7 8.5c.9 1.8 1.4 3.3 1.2 3.3-.6 0-3.6-5.5-3.6-6.6 0-1.1.5-.3 2.4 3.3zm4.1 6.9c.9 1.5 1.2 2.3.6 2-1.1-.7-3.5-4.6-2.8-4.6.3 0 1.2 1.2 2.2 2.6zm21.4 11.1c.2.2 0 .3-.5.3s-2.2-1.2-3.9-2.6l-3-2.6 3.5 2.3c1.9 1.2 3.7 2.4 3.9 2.6zm15.8 4.9c-.3.3-1.2.4-1.9.1-.8-.3-.5-.6.6-.6 1.1-.1 1.7.2 1.3.5zm323 0c-.3.3-1.2.4-1.9.1-.8-.3-.5-.6.6-.6 1.1-.1 1.7.2 1.3.5z"/><path d="M400.5 281.4c-4.4 1.2-10.2 3.3-13 4.6-6.4 3.2-18.3 14.9-22.2 22-3.2 5.7-7.1 16.3-7.8 21.5-.2 1.6-.7 4.8-1 7-1.1 6.9-.5 23.6 1 30.5.3 1.4.7 3.4.9 4.5.9 4.6 4.8 14.2 7.8 19.3 4.1 6.7 13.3 15.4 20.1 18.9 14.1 7.2 41.2 8.2 59.5 2.2l6.2-2.1v-8.7c0-4.8-.3-9-.6-9.3-.3-.4-2 0-3.8.7-5.4 2.3-20.7 4.7-28.8 4.7-19.1-.2-30.8-8.3-36.7-25.4-5.4-15.6-4.3-39.5 2.5-53.1 3-6.3 5.7-9.4 11.7-14 6.4-4.9 13-6.8 23-6.9 7.1 0 10.1.6 19.2 3.7 5.9 2 10.8 3.5 11 3.3.2-.2 1.9-4.1 3.8-8.8l3.5-8.5-5.6-2.4c-14.4-6-36-7.6-50.7-3.7zM242.2 290.2l.3 9.3 18 .1c9.9.1 18.6.2 19.3.3.9.1 1.2 12.2 1.2 57.1v57l3.8.1c4.1.1 15 .1 17 0 .9-.1 1.2-12.3 1.2-57.4v-57.3l19.5.1H342V281H241.9l.3 9.2z"/></svg>